<svg width="40" height="40" viewBox="0 0 40 40" fill="none" xmlns="http://www.w3.org/2000/svg">
<rect width="40" height="40" rx="10" fill="black"/>
<path d="M5.2599 15.5417H7.3799L9.6199 22.4483L11.9132 15.5417H13.9799L10.8199 24.875H8.43323L5.2599 15.5417ZM20.2057 23.2883V24.875H19.2457C18.3791 24.875 17.9524 24.5017 17.9791 23.755C17.7257 24.155 17.4191 24.4483 17.0591 24.6483C16.6857 24.8617 16.2457 24.955 15.7391 24.955C14.9657 24.955 14.3524 24.7817 13.8857 24.435C13.4191 24.0883 13.1924 23.5817 13.1924 22.9417C13.1924 22.2217 13.4591 21.6617 13.9924 21.2617C14.5257 20.8617 15.3124 20.6617 16.3391 20.6617H17.6991V20.3283C17.6991 20.0217 17.5791 19.7817 17.3524 19.595C17.1124 19.4083 16.8057 19.315 16.4191 19.315C16.0724 19.315 15.7791 19.395 15.5657 19.5417C15.3391 19.7017 15.2057 19.9017 15.1657 20.155H13.3524C13.4057 19.4617 13.7257 18.915 14.2857 18.5283C14.8457 18.1417 15.5791 17.9417 16.5124 17.9417C17.4724 17.9417 18.2191 18.155 18.7524 18.5817C19.2857 19.0083 19.5524 19.635 19.5524 20.435V22.8483C19.5524 23.0217 19.5791 23.1417 19.6591 23.195C19.7257 23.2617 19.8324 23.2883 19.9924 23.2883H20.2057ZM17.6991 21.915H16.3257C15.9257 21.915 15.6191 21.995 15.4057 22.155C15.1924 22.315 15.0857 22.5283 15.0857 22.8083C15.0857 23.0483 15.1657 23.2483 15.3524 23.3817C15.5391 23.5283 15.7791 23.595 16.0991 23.595C16.5791 23.595 16.9657 23.4617 17.2591 23.1817C17.5391 22.9017 17.6857 22.5283 17.6991 22.0483V21.915ZM27.1197 18.0217V24.875H25.453L25.2797 24.0483C25.0397 24.3417 24.7597 24.555 24.4397 24.715C24.1197 24.875 23.7197 24.955 23.2664 24.955C22.4664 24.955 21.813 24.715 21.3064 24.2217C20.7997 23.7283 20.5464 22.9017 20.5464 21.7417V18.0217H22.4264V21.515C22.4264 22.1417 22.533 22.6083 22.7464 22.9283C22.9597 23.2483 23.3064 23.395 23.7597 23.395C24.2264 23.395 24.5864 23.2217 24.853 22.875C25.1064 22.5283 25.2397 22.035 25.2397 21.395V18.0217H27.1197ZM28.1601 15.5417H30.0401V24.875H28.1601V15.5417ZM31.0835 16.1017H32.9635V18.0217H34.5235V19.6083H32.9635V22.6083C32.9635 22.8483 33.0035 23.0217 33.1102 23.1283C33.2169 23.235 33.3902 23.2883 33.6302 23.2883H34.6035V24.875H33.0435C31.7369 24.875 31.0835 24.2217 31.0835 22.915V16.1017Z" fill="white"/>
</svg>
