<svg width="401" height="400" viewBox="0 0 401 400" fill="none" xmlns="http://www.w3.org/2000/svg">
<rect x="0.182129" width="400" height="400" rx="200" fill="black"/>
<path d="M147.873 235.95L105.681 278.143C99.6538 270.824 94.4874 262.643 90.1821 254.033C99.2233 241.978 104.82 227.34 106.973 211.41C107.403 207.535 107.834 203.661 107.834 199.786C107.834 195.911 107.403 192.036 106.973 188.161C104.82 172.662 99.2233 158.024 90.1821 145.539C94.4874 136.928 99.6538 128.748 105.681 121.429L147.873 163.621C143.137 170.94 139.263 179.12 137.971 187.731C137.11 191.606 137.11 195.481 137.11 199.355C137.11 203.23 137.54 207.105 137.971 210.98C139.693 220.451 143.137 228.631 147.873 235.95Z" fill="white"/>
<path d="M278.324 294.501C271.005 300.528 262.825 305.695 254.215 310C242.16 300.959 227.522 295.362 211.592 293.209C207.717 292.779 203.842 292.348 199.968 292.348C196.093 292.348 192.218 292.779 188.343 293.209C172.844 295.362 158.206 300.959 145.721 310C137.11 305.695 128.93 300.528 121.611 294.501L163.803 252.309C171.122 257.045 179.302 260.919 187.913 262.211C191.788 263.072 195.662 263.072 199.537 263.072C203.412 263.072 207.287 262.642 211.161 262.211C220.203 260.489 228.383 257.045 235.271 252.309L278.324 294.501Z" fill="white"/>
<path d="M293.392 188.16C292.962 192.035 292.531 195.91 292.531 199.785C292.531 203.659 292.962 207.534 293.392 211.409C295.545 226.908 301.142 241.546 310.183 254.032C305.877 262.642 300.711 270.822 294.684 278.141L252.492 235.949C257.658 228.63 261.102 220.45 262.394 211.839C263.255 207.965 263.255 204.09 263.255 200.215C263.255 196.34 262.824 192.466 262.394 188.591C260.672 179.55 257.228 171.37 252.492 164.481L294.684 122.289C300.711 129.608 305.877 137.788 310.183 146.399C301.572 158.023 295.545 172.661 293.392 188.16Z" fill="white"/>
<path d="M278.324 105.499L236.132 147.691C228.813 142.955 220.633 139.081 212.022 137.789C208.147 136.928 204.273 136.928 200.398 136.928C196.523 136.928 192.648 137.358 188.774 137.789C179.732 139.511 171.552 142.955 164.664 147.691L122.472 105.499C129.791 99.4717 137.971 94.3053 146.582 90C158.636 99.0411 173.275 104.638 189.204 106.791C193.079 107.221 196.954 107.652 200.828 107.652C204.703 107.652 208.578 107.221 212.453 106.791C227.952 104.638 242.59 99.0411 255.075 90C263.255 94.3053 271.005 99.4717 278.324 105.499Z" fill="white"/>
<path d="M240.867 199.784C240.867 203.659 240.437 207.534 239.145 211.409C238.284 213.992 237.423 216.575 236.132 218.728C232.257 225.616 226.66 231.213 219.772 235.088C217.619 236.38 215.036 237.24 212.452 238.102C208.578 239.393 204.703 239.824 200.828 239.824C196.953 239.824 193.079 239.393 189.204 238.102C186.621 237.24 184.037 236.38 181.885 235.088C174.996 231.213 168.969 225.616 165.525 218.728C164.233 216.575 163.372 213.992 162.511 211.409C161.219 207.534 160.789 203.659 160.789 199.784C160.789 195.91 161.219 192.035 162.511 188.16C163.372 185.577 164.233 182.994 165.525 180.841C169.399 173.952 174.996 168.356 181.885 164.481C184.037 163.189 186.621 162.328 189.204 161.467C193.079 160.175 196.953 159.745 200.828 159.745C204.703 159.745 208.578 160.175 212.452 161.467C215.036 162.328 217.619 163.189 219.772 164.481C226.66 168.356 232.687 173.952 236.132 180.841C237.423 182.994 238.284 185.577 239.145 188.16C240.006 192.035 240.867 195.91 240.867 199.784Z" fill="white"/>
</svg>
